<svg xmlns="http://www.w3.org/2000/svg" xmlns:xlink="http://www.w3.org/1999/xlink" version="1.1" width="1000" height="1000" viewBox="0 0 1000 1000" xml:space="preserve">
<desc>Created with Fabric.js 3.5.0</desc>
<defs>
</defs>
<rect x="0" y="0" width="100%" height="100%" fill="#ffffff"/>
<g transform="matrix(4.2018 0 0 4.2018 633.1011 464.3306)" id="150829">
<path style="stroke: none; stroke-width: 1; stroke-dasharray: none; stroke-linecap: butt; stroke-dashoffset: 0; stroke-linejoin: miter; stroke-miterlimit: 4; is-custom-font: none; font-file-url: none; fill: rgb(66,71,80); fill-rule: evenodd; opacity: 1;" vector-effect="non-scaling-stroke" transform=" translate(-76.5, -20.5)" d="M 49.4971 8.81451 C 49.7441 8.81451 50.0894 8.95739 50.2633 9.13038 L 52.8431 11.7067 L 52.8605 11.7285 V 9.89733 C 52.8605 9.29953 53.3469 8.81451 53.9457 8.81451 H 57.5613 C 58.0997 8.81451 58.5508 9.15858 58.7158 9.63527 C 58.7286 9.69358 58.7331 9.75445 58.7331 9.81724 V 32.2471 C 58.7331 36.0427 56.3875 39.2758 53.0344 40.4887 C 52.1186 40.8206 51.1271 41 50.0894 41 H 45.1569 C 44.6949 41 44.2585 40.818 43.9305 40.4887 C 43.3016 39.8473 42.4488 38.9792 41.6106 38.127 C 40.5389 37.0461 41.3135 35.2111 42.837 35.2111 H 50.0695 C 51.1374 35.2111 52.0666 34.619 52.5441 33.7464 C 52.7674 33.3389 52.8605 32.875 52.8605 32.4117 V 32.2708 H 43.3357 C 42.7889 32.2708 42.255 32.217 41.739 32.1144 C 38.0104 31.2155 35.2413 27.8613 35.2413 23.8658 V 17.299 C 35.2413 12.6121 39.0456 8.81451 43.7393 8.81451 H 49.4971 Z M 99.072 0.0357521 C 99.6689 0.0357521 100.157 0.523343 100.157 1.11922 V 31.0808 C 100.157 31.7452 99.613 32.2885 98.9475 32.2885 H 95.4834 C 94.8128 32.2885 94.2744 31.7452 94.2744 31.0808 V 1.24352 C 94.2744 0.579727 94.8128 0.0357521 95.4834 0.0357521 H 99.072 Z M 134.296 0.0348551 C 134.895 0.0348551 135.381 0.519883 135.381 1.11832 V 8.83136 H 144.906 C 145.452 8.83136 145.986 8.88582 146.503 8.98769 C 150.231 9.88663 153 13.2408 153 17.2364 V 23.8012 C 153 28.4881 149.194 32.2883 144.499 32.2883 H 138.794 C 138.563 32.2883 138.339 32.2146 138.154 32.0781 C 138.109 32.0474 138.065 32.0108 138.026 31.9717 L 138.024 31.9698 L 135.378 29.3172 V 31.2048 C 135.378 31.8007 134.891 32.2883 134.294 32.2883 H 130.678 C 130.14 32.2883 129.689 31.9436 129.524 31.4669 C 129.51 31.4086 129.506 31.3477 129.506 31.2849 V 1.11832 C 129.506 0.519883 129.992 0.0348551 130.591 0.0348551 H 134.296 Z M 107.874 8.83916 C 108.476 8.83661 108.965 9.32228 108.965 9.92264 V 23.9116 C 108.965 25.2987 110.091 26.4232 111.48 26.4232 H 120.71 L 120.704 9.93289 C 120.704 9.33445 121.19 8.84878 121.789 8.84878 H 125.497 C 126.096 8.84878 126.582 9.33381 126.582 9.93225 L 126.584 31.285 C 126.584 31.3478 125.951 32.2884 125.413 32.2884 H 121.798 C 121.201 32.2884 120.712 31.8008 120.712 31.2049 V 29.3174 L 118.067 31.97 C 118.025 32.011 117.982 32.0475 117.936 32.0782 C 117.752 32.2141 117.529 32.2884 117.296 32.2884 H 111.591 C 106.896 32.2884 103.091 28.4883 103.091 23.8014 V 9.94186 C 103.091 9.34535 103.573 8.8616 104.17 8.8584 L 107.874 8.83916 Z M 86.5849 8.76235 C 86.934 8.7521 87.2748 8.88601 87.5199 9.13077 L 90.9642 12.5695 C 91.7369 13.341 91.2267 14.6948 90.1396 14.6948 L 88.7294 14.695 C 88.6721 14.695 88.6137 14.695 88.5542 14.695 L 85.8233 14.6956 C 85.7459 14.6956 85.6682 14.6956 85.5902 14.6957 L 82.9969 14.6963 C 82.92 14.6963 82.8435 14.6963 82.7674 14.6963 L 80.4822 14.6969 C 80.4221 14.6969 80.363 14.6969 80.3051 14.6969 L 78.5753 14.6974 C 77.1859 14.6974 76.0596 15.8212 76.0596 17.2084 V 23.9142 C 76.0596 25.3007 77.184 26.4233 78.5727 26.4252 L 90.2506 26.4233 C 90.8493 26.4233 91.3351 26.9083 91.3351 27.5067 V 31.205 C 91.3351 31.8028 90.8493 32.2885 90.2506 32.2885 H 78.2801 C 77.7327 32.2885 77.1987 32.234 76.6821 32.1321 C 72.9542 31.2332 70.1851 27.879 70.1851 23.8834 V 17.3186 C 70.1851 13.4339 72.8021 10.1559 76.3702 9.14807 C 76.9151 8.99621 77.4811 8.8969 78.0651 8.85397 C 78.2692 8.8386 78.4771 8.83155 78.6857 8.83155 L 78.7851 8.83124 C 78.8013 8.83119 78.8194 8.83113 78.8393 8.83106 L 78.9798 8.83059 C 80.269 8.82616 85.4088 8.80597 86.5849 8.76235 Z M 22.4089 0 C 23.0077 0 23.4941 0.485669 23.4941 1.08346 V 31.25 C 23.4941 31.3128 23.4896 31.3737 23.4768 31.432 C 23.3119 31.9087 22.8601 32.2534 22.3223 32.2534 H 18.7067 C 18.1099 32.2534 17.6215 31.7658 17.6215 31.1699 V 29.283 L 14.9762 31.935 C 14.9351 31.976 14.8915 32.0125 14.8459 32.0433 C 14.6617 32.1797 14.4378 32.2534 14.2061 32.2534 H 8.50033 C 3.80659 32.2534 0 28.4526 0 23.7664 V 17.2015 C 0 13.206 2.76888 9.85177 6.49744 8.95284 C 7.01404 8.85096 7.54733 8.7965 8.09474 8.7965 H 17.6196 V 1.08346 C 17.6196 0.485669 18.1054 0 18.7041 0 H 22.4089 Z M 31.2195 8.79727 C 31.8189 8.79727 32.3047 9.2823 32.3047 9.88073 V 31.1701 C 32.3047 31.7685 31.8189 32.2535 31.2195 32.2535 H 27.5153 C 26.9159 32.2535 26.4301 31.7685 26.4301 31.1701 V 9.88073 C 26.4301 9.2823 26.9159 8.79727 27.5153 8.79727 H 31.2195 Z M 66.4591 8.79727 C 67.0585 8.79727 67.5443 9.2823 67.5443 9.88073 V 31.1701 C 67.5443 31.7685 67.0585 32.2535 66.4591 32.2535 H 62.7549 C 62.1555 32.2535 61.6697 31.7685 61.6697 31.1701 V 9.88073 C 61.6697 9.2823 62.1555 8.79727 62.7549 8.79727 H 66.4591 Z M 144.612 14.6946 H 135.381 V 26.4231 H 144.61 C 145.999 26.4231 147.125 25.2986 147.125 23.9114 V 17.2056 C 147.125 15.8191 146.002 14.6965 144.612 14.6946 Z M 52.8605 14.6618 H 43.6289 C 42.2402 14.6618 41.1139 15.7869 41.1139 17.1734 V 23.8792 C 41.1139 25.2657 42.2376 26.3883 43.627 26.3902 H 52.8605 V 14.6618 Z M 17.6196 14.6598 H 8.38802 C 6.99864 14.6623 5.8743 15.7842 5.8743 17.1708 V 23.8772 C 5.8743 25.2638 7.00056 26.3882 8.38995 26.3882 H 17.6196 V 14.6598 Z M 66.4591 0.0356244 C 67.0585 0.0356244 67.5443 0.520653 67.5443 1.11909 V 4.81671 C 67.5443 5.41514 67.0585 5.90017 66.4591 5.90017 H 62.7549 C 62.1555 5.90017 61.6697 5.41514 61.6697 4.81671 V 1.11909 C 61.6697 0.520653 62.1555 0.0356244 62.7549 0.0356244 H 66.4591 Z M 31.2195 0.00089701 C 31.8189 0.00089701 32.3047 0.485925 32.3047 1.08436 V 4.78198 C 32.3047 5.38042 31.8189 5.86544 31.2195 5.86544 H 27.5153 C 26.9159 5.86544 26.4301 5.38042 26.4301 4.78198 V 1.08436 C 26.4301 0.485925 26.9159 0.00089701 27.5153 0.00089701 H 31.2195 Z" stroke-linecap="round"/>
</g>
</svg>