<svg xmlns:xlink="http://www.w3.org/1999/xlink" width="412" height="101" viewBox="0 0 412 101" fill="none" xmlns="http://www.w3.org/2000/svg">
<g clip-path="url(#clip0)">
<path opacity="0.2" fill-rule="evenodd" clip-rule="evenodd" d="M11.0617 64.4526V68.0017H13.4237C14.076 68.0017 14.6048 68.5314 14.6048 69.1847V71.5508H12.2427V83.3811H5.1566C4.50435 83.3811 3.97559 82.8514 3.97559 82.198V69.1847C3.97559 68.5314 4.50435 68.0017 5.1566 68.0017H7.51864V64.4526H9.29017H11.0617Z" fill="#3E4B8A" fill-opacity="0.1"/>
<path opacity="0.2" d="M24.0534 71.5508C24.7056 71.5508 25.2344 72.0804 25.2344 72.7338V75.0999C25.2344 75.7532 24.7056 76.2829 24.0534 76.2829H13.4242C12.7719 76.2829 12.2432 75.7532 12.2432 75.0999V72.7338C12.2432 72.0804 12.7719 71.5508 13.4242 71.5508H24.0534Z" fill="#3E4B8A" fill-opacity="0.1"/>
<path opacity="0.2" d="M24.0534 76.2828C24.7056 76.2828 25.2344 76.8125 25.2344 77.4659V83.381H12.2432V77.4659C12.2432 76.8125 12.7719 76.2828 13.4242 76.2828H24.0534Z" fill="#3E4B8A" fill-opacity="0.1"/>
<path fill-rule="evenodd" clip-rule="evenodd" d="M8.10951 62.0865C8.10951 60.7798 9.16703 59.7205 10.4715 59.7205H12.2431V62.0865H10.4715V63.2695H12.2431V66.8186H13.4241C14.7286 66.8186 15.7861 67.8779 15.7861 69.1847V70.3677H24.0533C25.3578 70.3677 26.4153 71.427 26.4153 72.7337V75.0998C26.4153 75.5308 26.3003 75.9348 26.0993 76.2828C26.3003 76.6308 26.4153 77.0349 26.4153 77.4658V84.564H5.15696C3.85244 84.564 2.79492 83.5047 2.79492 82.198V69.1847C2.79492 67.8779 3.85244 66.8186 5.15696 66.8186H6.33798V63.2695H8.10951V62.0865ZM11.0621 82.198V77.4658C11.0621 77.0349 11.1771 76.6308 11.3781 76.2828C11.1771 75.9348 11.0621 75.5308 11.0621 75.0998V72.7337C11.0621 71.427 12.1196 70.3677 13.4241 70.3677V69.1847H5.15696V82.198H11.0621ZM8.70002 65.6356V66.8186H9.88103V65.6356H8.70002ZM24.0533 75.0998H13.4241V72.7337H24.0533V75.0998ZM13.4241 82.198V77.4658H24.0533V82.198H13.4241Z" fill="#3E4B8A" fill-opacity="0.1"/>
<path opacity="0.2" d="M105.786 69.9323L104.6 71.1362L102.821 69.3304L99.2643 72.9419L102.229 75.9515L103.169 74.997C103.632 74.5269 104.382 74.5269 104.846 74.997L108.852 79.0644C109.778 80.0046 109.778 81.5291 108.852 82.4693L108.648 82.6759C107.722 83.6161 106.221 83.6161 105.295 82.6759L101.288 78.6085C100.825 78.1384 100.825 77.3761 101.288 76.906L102.229 75.9515L99.2643 72.9419L96.3001 75.9515L97.2402 76.906C97.7032 77.3761 97.7032 78.1384 97.2402 78.6085L93.2341 82.6759C92.308 83.6161 90.8065 83.6161 89.8804 82.6759L89.677 82.4693C88.7509 81.5291 88.7509 80.0046 89.677 79.0644L93.6831 74.997C94.1461 74.5269 94.8969 74.5269 95.3599 74.997L96.3001 75.9515L99.2643 72.9419L95.1144 68.7285H92.743L89.7787 65.7189L92.1501 63.3112L95.1144 66.3208V68.7285L99.2643 72.9419L102.821 69.3304L101.043 67.5247L102.821 65.7189L98.6715 65.117L98.0786 64.5151L101.636 60.9036L102.229 61.5055L102.821 65.7189L105.193 63.3112L109.199 67.3786C110.588 68.789 110.588 71.0757 109.199 72.486L108.75 72.9419L105.786 69.9323Z" fill="#3E4B8A" fill-opacity="0.1"/>
<path fill-rule="evenodd" clip-rule="evenodd" d="M101.635 59.7205L103.345 61.4204L103.659 63.6002L105.191 62.0769L110.034 66.8908C111.885 68.7313 111.885 71.7153 110.034 73.5558L108.747 74.8351L105.784 71.8895L104.598 73.0678L102.82 71.3004L100.941 73.1688L102.228 74.4481L102.33 74.3471C103.255 73.4268 104.756 73.4268 105.682 74.3471L109.686 78.3279C111.075 79.7082 111.075 81.9462 109.686 83.3266L109.483 83.5287C108.094 84.9091 105.843 84.9091 104.455 83.5287L100.45 79.5479C99.5243 78.6277 99.5243 77.1357 100.45 76.2154L100.552 76.1144L99.2648 74.8351L97.9779 76.1144L98.0796 76.2154C99.0053 77.1357 99.0053 78.6277 98.0796 79.5479L94.0751 83.5287C92.6865 84.9091 90.4351 84.9091 89.0465 83.5287L88.8432 83.3266C87.4546 81.9462 87.4546 79.7082 88.8432 78.3279L92.8477 74.347C93.7734 73.4268 95.2743 73.4268 96.2 74.347L96.3017 74.4481L97.5886 73.1688L94.6256 70.2233H92.2551L88.1068 66.0996L92.1534 62.0769L96.3017 66.2006V68.5571L99.2648 71.5026L101.144 69.6342L99.3665 67.8669L100.306 66.9327L98.1135 66.6213L96.4034 64.9213L101.635 59.7205ZM101.424 64.711L100.149 64.5301L101.242 63.4442L101.424 64.711ZM102.719 67.8669L104.598 69.7353L105.784 68.5571L108.701 71.4574C109.264 70.5493 109.149 69.3441 108.357 68.5571L105.191 65.4094L102.719 67.8669ZM93.9313 67.8669V67.1767L92.1534 65.4094L91.4591 66.0996L93.237 67.8669H93.9313ZM94.5239 76.0133L90.5194 79.9941C90.0565 80.4542 90.0565 81.2002 90.5194 81.6603L90.7227 81.8625C91.1856 82.3226 91.936 82.3226 92.3989 81.8625L96.4034 77.8817L94.5239 76.0133ZM104.006 76.0133L102.126 77.8817L106.131 81.8625C106.594 82.3226 107.344 82.3226 107.807 81.8625L108.01 81.6603C108.473 81.2002 108.473 80.4542 108.01 79.9941L104.006 76.0133Z" fill="#3E4B8A" fill-opacity="0.1"/>
<g opacity="0.2">
<path d="M174.045 73.9168H182.312V76.2828H187.036V73.9168H195.304V79.8319C195.304 81.1386 194.246 82.1979 192.942 82.1979H176.407C175.103 82.1979 174.045 81.1386 174.045 79.8319V73.9168Z" fill="#3E4B8A" fill-opacity="0.1"/>
<path d="M172.864 73.9168H174.045H182.312V71.5507H187.036V73.9168H195.304H196.485V67.4101H189.399H179.95H172.864V73.9168Z" fill="#3E4B8A" fill-opacity="0.1"/>
</g>
<path fill-rule="evenodd" clip-rule="evenodd" d="M182.312 64.4526C181.66 64.4526 181.131 64.9823 181.131 65.6356V66.2271H188.217V65.6356C188.217 64.9823 187.688 64.4526 187.036 64.4526H182.312ZM190.579 66.2271V65.6356C190.579 63.6755 188.993 62.0865 187.036 62.0865H182.312C180.355 62.0865 178.769 63.6755 178.769 65.6356V66.2271H172.864C172.211 66.2271 171.683 66.7568 171.683 67.4102V73.9168C171.683 74.5702 172.211 75.0998 172.864 75.0998V79.8319C172.864 81.792 174.45 83.381 176.407 83.381H192.941C194.898 83.381 196.484 81.792 196.484 79.8319V75.0998C197.136 75.0998 197.665 74.5702 197.665 73.9168V67.4102C197.665 66.7568 197.136 66.2271 196.484 66.2271H190.579ZM194.122 75.0998V79.8319C194.122 80.4853 193.593 81.015 192.941 81.015H176.407C175.754 81.015 175.226 80.4853 175.226 79.8319V75.0998H181.131V76.2829C181.131 76.9362 181.66 77.4659 182.312 77.4659H187.036C187.688 77.4659 188.217 76.9362 188.217 76.2829V75.0998H194.122ZM188.217 72.7338H195.303V68.5932H174.045V72.7338H181.131V71.5508C181.131 70.8974 181.66 70.3677 182.312 70.3677H187.036C187.688 70.3677 188.217 70.8974 188.217 71.5508V72.7338ZM183.493 75.0998H185.855V72.7338H183.493V75.0998Z" fill="#3E4B8A" fill-opacity="0.1"/>
<path opacity="0.2" d="M261.431 65.6356H277.965V77.4659H261.431V65.6356Z" fill="#3E4B8A" fill-opacity="0.1"/>
<path fill-rule="evenodd" clip-rule="evenodd" d="M259.068 65.6356C259.068 64.3288 260.126 63.2695 261.43 63.2695H277.964C279.269 63.2695 280.326 64.3288 280.326 65.6356V77.4658C280.326 77.8968 280.211 78.3009 280.01 78.6489H282.688V81.0149H256.706V78.6489H259.384C259.183 78.3009 259.068 77.8968 259.068 77.4658V65.6356ZM261.43 65.6356H277.964V77.4658H261.43V65.6356Z" fill="#3E4B8A" fill-opacity="0.1"/>
<rect opacity="0.5" x="264.974" y="78.6489" width="9.44815" height="1.18303" fill="#3E4B8A" fill-opacity="0.1"/>
<path d="M365.372 70.3677V65.6356C365.372 64.3343 364.309 63.2695 363.01 63.2695H346.476C345.177 63.2695 344.114 64.3343 344.114 65.6356V70.3677C342.815 70.3677 341.752 71.4324 341.752 72.7337V79.8319H343.323L344.114 82.1979H345.295L346.086 79.8319H363.412L364.191 82.1979H365.372L366.164 79.8319H367.734V72.7337C367.734 71.4324 366.671 70.3677 365.372 70.3677ZM355.924 65.6356H363.01V70.3677H355.924V65.6356ZM346.476 65.6356H353.562V70.3677H346.476V65.6356ZM365.372 77.4658H344.114V72.7337H365.372V77.4658Z" fill="#3E4B8A" fill-opacity="0.1"/>
<g opacity="0.3">
<path d="M353.562 65.6356H346.476V70.3677H353.562V65.6356Z" fill="#3E4B8A" fill-opacity="0.1"/>
<path d="M365.373 72.7338H344.114V77.4659H365.373V72.7338Z" fill="#3E4B8A" fill-opacity="0.1"/>
<path d="M355.924 65.6356H363.011V70.3677H355.924V65.6356Z" fill="#3E4B8A" fill-opacity="0.1"/>
</g>
<g opacity="0.2">
<path d="M54.3177 20.3464L55.7349 21.766L53.491 24.0138L48.8968 19.4118L51.1408 17.1641L52.6407 18.6783L51.2353 20.0743L52.9123 21.7542L54.3177 20.3464Z" fill="#3E4B8A" fill-opacity="0.1"/>
<path d="M60.1992 20.6422L61.8644 22.3102L50.5148 33.6791H48.8496V32.011L60.1992 20.6422Z" fill="#3E4B8A" fill-opacity="0.1"/>
<path d="M62.1597 28.2135L60.7425 26.7821L58.4985 29.0298L63.0927 33.6318L65.3366 31.384L63.8367 29.8816L62.4313 31.2894L60.7543 29.6213L62.1597 28.2135Z" fill="#3E4B8A" fill-opacity="0.1"/>
<path d="M61.8653 18.96L63.5355 17.2869L65.2057 18.96L63.5355 20.633L61.8653 18.96Z" fill="#3E4B8A" fill-opacity="0.1"/>
</g>
<path d="M67.7102 18.1342L64.3679 14.7862C63.9073 14.3248 63.1633 14.3248 62.7027 14.7862L57.3999 20.098L52.8058 15.496C51.8846 14.5733 50.3847 14.5733 49.4635 15.496L47.2195 17.7438C46.2983 18.6665 46.2983 20.169 47.2195 21.0917L51.8137 25.6937L46.4873 31.0292V36.0452H51.4948L56.833 30.6979L61.4272 35.2999C62.5492 36.4238 64.0609 36.0097 64.7695 35.2999L67.0134 33.0521C67.9346 32.1294 67.9346 30.6269 67.0134 29.7042L62.4192 25.1022L67.722 19.7904C68.1708 19.3409 68.1708 18.5956 67.7102 18.1342ZM48.8966 19.4119L51.1287 17.1641L52.6286 18.6665L51.235 20.0743L52.9002 21.7424L54.3056 20.3346L55.7229 21.7542L53.4789 24.002L48.8966 19.4119ZM50.5146 33.6791H48.8493V32.0111L60.1989 20.6422L61.7343 22.1801L61.8642 22.3103L50.5146 33.6791ZM62.4311 31.2894L63.8365 29.8816L65.3364 31.3841L63.0924 33.6318L58.4983 29.0299L60.7422 26.7821L62.1594 28.2017L60.754 29.6095L62.4311 31.2894ZM63.5412 20.6422L61.876 18.9741L63.5412 17.3061L65.2064 18.9741L63.5412 20.6422Z" fill="#3E4B8A" fill-opacity="0.1"/>
<path opacity="0.2" d="M136.262 25.9895C136.262 26.9696 135.469 27.764 134.49 27.764C133.512 27.764 132.719 26.9696 132.719 25.9895C132.719 25.0095 133.512 24.215 134.49 24.215C135.469 24.215 136.262 25.0095 136.262 25.9895Z" fill="#3E4B8A" fill-opacity="0.1"/>
<path fill-rule="evenodd" clip-rule="evenodd" d="M133.31 22.0204C131.603 22.5294 130.357 24.1138 130.357 25.9895C130.357 28.2763 132.208 30.1301 134.491 30.1301C136.774 30.1301 138.625 28.2763 138.625 25.9895C138.625 24.1138 137.379 22.5294 135.672 22.0204V17.1168H133.31V22.0204ZM134.491 27.7641C135.469 27.7641 136.263 26.9696 136.263 25.9895C136.263 25.0095 135.469 24.215 134.491 24.215C133.513 24.215 132.719 25.0095 132.719 25.9895C132.719 26.9696 133.513 27.7641 134.491 27.7641Z" fill="#3E4B8A" fill-opacity="0.1"/>
<path opacity="0.2" d="M142.167 30.1301L142.698 31.765H144.414L143.025 32.7755L143.556 34.4104L142.167 33.3999L140.779 34.4104L141.309 32.7755L139.921 31.765H141.637L142.167 30.1301Z" fill="#3E4B8A" fill-opacity="0.1"/>
<path fill-rule="evenodd" clip-rule="evenodd" d="M143.348 28.0809C143.842 28.3667 144.229 28.829 144.414 29.3989C145.437 29.3989 146.344 30.0589 146.66 31.0338C146.976 32.0086 146.63 33.0766 145.802 33.6791C146.118 34.654 145.772 35.7219 144.944 36.3244C144.116 36.9269 142.995 36.9269 142.167 36.3244C141.339 36.9269 140.218 36.9269 139.39 36.3244C138.563 35.7219 138.216 34.654 138.532 33.6791C137.705 33.0766 137.358 32.0086 137.674 31.0338C137.991 30.0589 138.897 29.3989 139.921 29.3989C140.106 28.829 140.492 28.3667 140.986 28.0809V19.4828H143.348V28.0809ZM139.921 31.7649L141.309 32.7753L140.779 34.4103L142.167 33.3998L143.556 34.4103L143.025 32.7753L144.414 31.7649H142.698L142.167 30.13L141.637 31.7649H139.921Z" fill="#3E4B8A" fill-opacity="0.1"/>
<path opacity="0.2" d="M148.072 24.215H149.844H151.615V27.764H148.072V24.215Z" fill="#3E4B8A" fill-opacity="0.1"/>
<path fill-rule="evenodd" clip-rule="evenodd" d="M151.025 17.1168V21.8489H151.615C152.92 21.8489 153.977 22.9082 153.977 24.215V27.7641C153.977 29.0708 152.92 30.1301 151.615 30.1301H148.072C146.767 30.1301 145.71 29.0708 145.71 27.7641V24.215C145.71 22.9082 146.767 21.8489 148.072 21.8489H148.663V17.1168H151.025ZM148.072 24.215V27.7641H151.615V24.215H148.072Z" fill="#3E4B8A" fill-opacity="0.1"/>
<path opacity="0.2" d="M143.348 17.1167C143.348 17.7701 142.82 18.2998 142.167 18.2998C141.515 18.2998 140.986 17.7701 140.986 17.1167C140.986 16.4634 141.515 15.9337 142.167 15.9337C142.82 15.9337 143.348 16.4634 143.348 17.1167Z" fill="#3E4B8A" fill-opacity="0.1"/>
<path fill-rule="evenodd" clip-rule="evenodd" d="M145.508 15.9338C145.022 14.5553 143.71 13.5677 142.167 13.5677C140.624 13.5677 139.312 14.5553 138.826 15.9338H133.9C131.291 15.9338 129.176 18.0524 129.176 20.6659H131.538C131.538 19.3592 132.595 18.2999 133.9 18.2999H138.826C139.312 19.6783 140.624 20.6659 142.167 20.6659C143.71 20.6659 145.022 19.6783 145.508 18.2999H150.434C151.739 18.2999 152.796 19.3592 152.796 20.6659H155.158C155.158 18.0524 153.043 15.9338 150.434 15.9338H145.508ZM140.986 17.1168C140.986 17.7702 141.515 18.2999 142.167 18.2999C142.819 18.2999 143.348 17.7702 143.348 17.1168C143.348 16.4635 142.819 15.9338 142.167 15.9338C141.515 15.9338 140.986 16.4635 140.986 17.1168Z" fill="#3E4B8A" fill-opacity="0.1"/>
<path opacity="0.2" d="M227.18 21.0636L236.65 34.8621H231.336H223.659H217.754C220.419 30.8573 224.343 25.1599 227.18 21.0636Z" fill="#3E4B8A" fill-opacity="0.1"/>
<path fill-rule="evenodd" clip-rule="evenodd" d="M217.123 33.6791H214.212L214.211 36.0451H240.193V33.6791H237.272L228.615 21.0668C229.27 20.1222 229.854 19.2821 230.333 18.593C230.761 17.9768 231.107 17.4814 231.344 17.1401L231.713 16.6123C231.713 16.6123 231.713 16.6118 230.745 15.9337C229.777 15.2556 229.777 15.2557 229.777 15.2557L229.408 15.7855C229.169 16.1275 228.824 16.6236 228.395 17.2405C228.043 17.7461 227.635 18.3329 227.185 18.9825L224.632 15.2635L222.686 16.6039L225.745 21.0606C225.505 21.4069 225.259 21.7626 225.008 22.1259C222.469 25.8001 219.405 30.2629 217.123 33.6791ZM219.969 33.6791H223.027L227.128 27.5166L231.913 33.6791H234.405L227.176 23.146C227.101 23.2541 227.026 23.3629 226.95 23.4725C224.728 26.6884 222.11 30.4992 219.969 33.6791ZM228.921 33.6791L227.276 31.5604L225.866 33.6791H228.921Z" fill="#3E4B8A" fill-opacity="0.1"/>
<path fill-rule="evenodd" clip-rule="evenodd" d="M305.123 17.1168C303.819 17.1168 302.761 18.1761 302.761 19.4828V26.581H305.123V21.8489H307.486V33.6791H316.934V21.8489H319.296V26.581H321.658V19.4828C321.658 18.1761 320.6 17.1168 319.296 17.1168H316.301C315.485 18.5303 313.959 19.4828 312.21 19.4828C310.46 19.4828 308.934 18.5303 308.118 17.1168H305.123ZM319.296 28.947H324.02V19.4828C324.02 16.8694 321.905 14.7507 319.296 14.7507H314.716L314.438 15.5395C314.113 16.4601 313.236 17.1168 312.21 17.1168C311.183 17.1168 310.306 16.4601 309.982 15.5395L309.703 14.7507H305.123C302.514 14.7507 300.399 16.8694 300.399 19.4828V28.947H305.123V36.0452H319.296V28.947Z" fill="#3E4B8A" fill-opacity="0.1"/>
<path opacity="0.2" d="M302.761 19.4829C302.761 18.1761 303.818 17.1168 305.123 17.1168H308.117C308.933 18.5303 310.459 19.4829 312.209 19.4829C313.959 19.4829 315.484 18.5303 316.301 17.1168H319.295C320.6 17.1168 321.657 18.1761 321.657 19.4829V26.581H319.295V21.8489H316.933V33.6792H307.485V21.8489H305.123V26.581H302.761V19.4829Z" fill="#3E4B8A" fill-opacity="0.1"/>
<g opacity="0.2">
<path d="M393.717 29.5385H388.993V34.2706H393.717V29.5385Z" fill="#3E4B8A" fill-opacity="0.1"/>
<path d="M394.981 21.8488L397.26 18.1105L399.54 21.8488H394.981Z" fill="#3E4B8A" fill-opacity="0.1"/>
<path d="M406.708 31.9046C406.708 33.538 405.387 34.8621 403.756 34.8621C402.125 34.8621 400.803 33.538 400.803 31.9046C400.803 30.2711 402.125 28.947 403.756 28.947C405.387 28.947 406.708 30.2711 406.708 31.9046Z" fill="#3E4B8A" fill-opacity="0.1"/>
</g>
<path d="M397.26 13.5677L390.764 24.215H403.756L397.26 13.5677ZM397.26 18.1106L399.539 21.8489H394.969L397.26 18.1106ZM403.756 26.581C400.815 26.581 398.441 28.9589 398.441 31.9047C398.441 34.8504 400.815 37.2283 403.756 37.2283C406.696 37.2283 409.07 34.8504 409.07 31.9047C409.07 28.9589 406.696 26.581 403.756 26.581ZM403.756 34.8622C402.126 34.8622 400.803 33.5372 400.803 31.9047C400.803 30.2721 402.126 28.9471 403.756 28.9471C405.385 28.9471 406.708 30.2721 406.708 31.9047C406.708 33.5372 405.385 34.8622 403.756 34.8622ZM396.079 27.1725H386.631V36.6368H396.079V27.1725ZM393.717 34.2707H388.993V29.5386H393.717V34.2707Z" fill="#3E4B8A" fill-opacity="0.1"/>
</g>
<defs>
<clipPath id="clip0">
<rect width="411" height="265" fill="white" transform="translate(0.432617 -130.751)"/>
</clipPath>
</defs>
</svg>