<svg xmlns:xlink="http://www.w3.org/1999/xlink" xmlns="http://www.w3.org/2000/svg" style="width: 16px; height: 16px; fill: var(--color-icon-rating-4-5);" width="24"  height="24" ><defs><symbol id="verifiedUser" xmlns="http://www.w3.org/2000/svg" viewBox="0 0 24 24"><path fill-rule="evenodd" d="M20.661 7l-.274 2.623a.347.347 0 00.065.24L22 12l-1.548 2.137a.347.347 0 00-.065.24L20.661 17l-2.41 1.073a.346.346 0 00-.177.176L17 20.661l-2.624-.274a.347.347 0 00-.24.065L12 22l-2.138-1.548a.345.345 0 00-.238-.065l-2.625.274-1.073-2.41a.348.348 0 00-.176-.177L3.339 17l.274-2.624a.349.349 0 00-.065-.24L2 12l1.548-2.137a.349.349 0 00.065-.24L3.339 7l2.41-1.073a.345.345 0 00.177-.176L7 3.339l2.625.274a.35.35 0 00.24-.065L12 2l2.137 1.548a.35.35 0 00.24.065L17 3.34l1.073 2.41a.348.348 0 00.176.177L20.661 7zM7.707 10.292l2.793 2.793 5.793-5.793 1.414 1.414-6.5 6.5a1 1 0 01-1.414 0l-3.5-3.5 1.414-1.414z" clip-rule="evenodd"></path></symbol></defs><use xlink:href="#verifiedUser" fill="#00A049"></use></svg>