<?xml version="1.0" encoding="UTF-8"?>
<svg xmlns="http://www.w3.org/2000/svg" xmlns:xlink="http://www.w3.org/1999/xlink" width="110px" height="29px" viewBox="0 0 108 29" version="1.1">
<g id="surface1">
<path style=" stroke:none;fill-rule:evenodd;fill:rgb(25.882353%,27.843137%,31.372549%);fill-opacity:1;" d="M 34.9375 6.234375 C 35.113281 6.234375 35.355469 6.335938 35.480469 6.457031 L 37.300781 8.28125 L 37.3125 8.296875 L 37.3125 7 C 37.3125 6.578125 37.65625 6.234375 38.078125 6.234375 L 40.632812 6.234375 C 41.011719 6.234375 41.328125 6.476562 41.445312 6.816406 C 41.457031 6.855469 41.457031 6.898438 41.457031 6.945312 L 41.457031 22.808594 C 41.457031 25.492188 39.804688 27.78125 37.4375 28.636719 C 36.789062 28.875 36.089844 29 35.355469 29 L 31.875 29 C 31.550781 29 31.242188 28.871094 31.007812 28.636719 C 30.566406 28.183594 29.964844 27.570312 29.371094 26.96875 C 28.617188 26.203125 29.164062 24.90625 30.238281 24.90625 L 35.34375 24.90625 C 36.097656 24.90625 36.753906 24.488281 37.089844 23.871094 C 37.246094 23.582031 37.3125 23.253906 37.3125 22.925781 L 37.3125 22.824219 L 30.589844 22.824219 C 30.203125 22.824219 29.828125 22.789062 29.460938 22.714844 C 26.832031 22.078125 24.875 19.707031 24.875 16.878906 L 24.875 12.234375 C 24.875 8.921875 27.5625 6.234375 30.875 6.234375 Z M 69.933594 0.0234375 C 70.355469 0.0234375 70.699219 0.371094 70.699219 0.792969 L 70.699219 21.984375 C 70.699219 22.453125 70.316406 22.839844 69.84375 22.839844 L 67.398438 22.839844 C 66.925781 22.839844 66.546875 22.453125 66.546875 21.984375 L 66.546875 0.878906 C 66.546875 0.410156 66.925781 0.0234375 67.398438 0.0234375 Z M 94.796875 0.0234375 C 95.21875 0.0234375 95.5625 0.367188 95.5625 0.789062 L 95.5625 6.246094 L 102.285156 6.246094 C 102.671875 6.246094 103.050781 6.285156 103.414062 6.355469 C 106.046875 6.992188 108 9.367188 108 12.191406 L 108 16.835938 C 108 20.148438 105.3125 22.839844 102 22.839844 L 97.972656 22.839844 C 97.808594 22.839844 97.652344 22.785156 97.519531 22.6875 C 97.488281 22.667969 97.457031 22.640625 97.429688 22.613281 L 95.5625 20.738281 L 95.5625 22.070312 C 95.5625 22.492188 95.21875 22.839844 94.796875 22.839844 L 92.242188 22.839844 C 91.863281 22.839844 91.546875 22.59375 91.429688 22.257812 C 91.417969 22.214844 91.414062 22.171875 91.414062 22.128906 L 91.414062 0.789062 C 91.414062 0.367188 91.757812 0.0234375 92.183594 0.0234375 Z M 76.144531 6.253906 C 76.570312 6.25 76.917969 6.59375 76.917969 7.019531 L 76.917969 16.914062 C 76.917969 17.894531 77.710938 18.691406 78.691406 18.691406 L 85.207031 18.691406 L 85.203125 7.027344 C 85.203125 6.601562 85.546875 6.257812 85.96875 6.257812 L 88.585938 6.257812 C 89.007812 6.257812 89.351562 6.601562 89.351562 7.023438 L 89.351562 22.128906 C 89.351562 22.171875 88.90625 22.839844 88.527344 22.839844 L 85.976562 22.839844 C 85.554688 22.839844 85.207031 22.492188 85.207031 22.070312 L 85.207031 20.738281 L 83.339844 22.613281 C 83.3125 22.640625 83.28125 22.667969 83.25 22.691406 C 83.117188 22.785156 82.960938 22.839844 82.796875 22.839844 L 78.769531 22.839844 C 75.457031 22.839844 72.769531 20.148438 72.769531 16.835938 L 72.769531 7.03125 C 72.769531 6.609375 73.109375 6.269531 73.53125 6.265625 Z M 61.117188 6.199219 C 61.363281 6.191406 61.605469 6.285156 61.777344 6.457031 L 64.210938 8.890625 C 64.753906 9.4375 64.394531 10.394531 63.628906 10.394531 L 62.632812 10.394531 C 62.59375 10.394531 62.550781 10.394531 62.507812 10.394531 L 60.582031 10.394531 C 60.527344 10.394531 60.472656 10.394531 60.417969 10.394531 L 58.585938 10.394531 C 58.53125 10.394531 58.476562 10.394531 58.425781 10.394531 L 56.8125 10.394531 C 56.769531 10.394531 56.726562 10.394531 56.6875 10.394531 L 55.464844 10.394531 C 54.484375 10.394531 53.6875 11.191406 53.6875 12.171875 L 53.6875 16.914062 C 53.6875 17.894531 54.484375 18.691406 55.464844 18.691406 L 63.707031 18.691406 C 64.128906 18.691406 64.472656 19.03125 64.472656 19.457031 L 64.472656 22.070312 C 64.472656 22.496094 64.128906 22.839844 63.707031 22.839844 L 55.257812 22.839844 C 54.871094 22.839844 54.492188 22.800781 54.128906 22.726562 C 51.496094 22.089844 49.542969 19.71875 49.542969 16.894531 L 49.542969 12.25 C 49.542969 9.503906 51.390625 7.183594 53.910156 6.46875 C 54.292969 6.363281 54.691406 6.292969 55.105469 6.261719 C 55.25 6.25 55.394531 6.246094 55.542969 6.246094 L 55.613281 6.246094 C 55.625 6.246094 55.636719 6.246094 55.652344 6.246094 L 55.75 6.246094 C 56.660156 6.242188 60.289062 6.230469 61.117188 6.199219 Z M 15.816406 0 C 16.242188 0 16.585938 0.34375 16.585938 0.765625 L 16.585938 22.105469 C 16.585938 22.148438 16.582031 22.191406 16.570312 22.230469 C 16.457031 22.570312 16.136719 22.8125 15.757812 22.8125 L 13.203125 22.8125 C 12.785156 22.8125 12.4375 22.46875 12.4375 22.046875 L 12.4375 20.710938 L 10.570312 22.589844 C 10.542969 22.617188 10.511719 22.644531 10.480469 22.664062 C 10.347656 22.761719 10.191406 22.8125 10.027344 22.8125 L 6 22.8125 C 2.6875 22.8125 0 20.125 0 16.808594 L 0 12.167969 C 0 9.339844 1.953125 6.96875 4.585938 6.332031 C 4.949219 6.261719 5.328125 6.222656 5.714844 6.222656 L 12.4375 6.222656 L 12.4375 0.765625 C 12.4375 0.34375 12.78125 0 13.203125 0 Z M 22.039062 6.222656 C 22.460938 6.222656 22.804688 6.566406 22.804688 6.988281 L 22.804688 22.046875 C 22.804688 22.46875 22.460938 22.8125 22.039062 22.8125 L 19.421875 22.8125 C 19 22.8125 18.65625 22.46875 18.65625 22.046875 L 18.65625 6.988281 C 18.65625 6.566406 19 6.222656 19.421875 6.222656 Z M 46.914062 6.222656 C 47.335938 6.222656 47.679688 6.566406 47.679688 6.988281 L 47.679688 22.046875 C 47.679688 22.46875 47.335938 22.8125 46.914062 22.8125 L 44.296875 22.8125 C 43.875 22.8125 43.53125 22.46875 43.53125 22.046875 L 43.53125 6.988281 C 43.53125 6.566406 43.875 6.222656 44.296875 6.222656 Z M 102.078125 10.394531 L 95.5625 10.394531 L 95.5625 18.691406 L 102.078125 18.691406 C 103.058594 18.691406 103.851562 17.894531 103.851562 16.914062 L 103.851562 12.167969 C 103.851562 11.1875 103.058594 10.394531 102.078125 10.394531 Z M 37.3125 10.371094 L 30.796875 10.371094 C 29.816406 10.371094 29.023438 11.167969 29.023438 12.148438 L 29.023438 16.890625 C 29.023438 17.871094 29.816406 18.664062 30.796875 18.667969 L 37.3125 18.667969 Z M 12.4375 10.367188 L 5.921875 10.367188 C 4.941406 10.371094 4.148438 11.164062 4.148438 12.144531 L 4.148438 16.890625 C 4.148438 17.871094 4.941406 18.664062 5.921875 18.664062 L 12.4375 18.664062 Z M 46.914062 0.0234375 C 47.335938 0.0234375 47.679688 0.367188 47.679688 0.792969 L 47.679688 3.40625 C 47.679688 3.832031 47.335938 4.171875 46.914062 4.171875 L 44.296875 4.171875 C 43.875 4.171875 43.53125 3.832031 43.53125 3.40625 L 43.53125 0.792969 C 43.53125 0.367188 43.875 0.0234375 44.296875 0.0234375 Z M 22.039062 0 C 22.460938 0 22.804688 0.34375 22.804688 0.765625 L 22.804688 3.382812 C 22.804688 3.804688 22.460938 4.148438 22.039062 4.148438 L 19.421875 4.148438 C 19 4.148438 18.65625 3.804688 18.65625 3.382812 L 18.65625 0.765625 C 18.65625 0.34375 19 0 19.421875 0 Z M 22.039062 0 "/>
</g>
</svg>
