<?xml version="1.0" standalone="no"?>
<!DOCTYPE svg PUBLIC "-//W3C//DTD SVG 20010904//EN"
 "http://www.w3.org/TR/2001/REC-SVG-20010904/DTD/svg10.dtd">
<svg version="1.0" xmlns="http://www.w3.org/2000/svg"
 width="257.000000pt" height="257.000000pt" viewBox="0 0 257.000000 257.000000"
 preserveAspectRatio="xMidYMid meet">

<g transform="translate(0.000000,257.000000) scale(0.100000,-0.100000)"
fill="#000000" stroke="none">
<path d="M390 2561 c-73 -15 -127 -67 -156 -153 -18 -50 -19 -104 -19 -1073 0
-969 1 -1023 19 -1073 20 -60 64 -115 108 -138 43 -22 143 -20 204 4 61 25
1671 945 1759 1006 160 111 166 281 12 394 -68 51 -1708 991 -1767 1013 -58
22 -116 29 -160 20z"/>
</g>
</svg>
