<svg xmlns:xlink="http://www.w3.org/1999/xlink" xmlns="http://www.w3.org/2000/svg" style="width: 24px; height: 24px; fill: var(--color-icon-high-emphasis);" width="24"  height="24" ><defs><symbol id="video" xmlns="http://www.w3.org/2000/svg" viewBox="0 0 24 24"><path fill-rule="evenodd" d="M12 3c2.372 0 4.989.256 7.86.767l.712.13a2 2 0 011.562 1.46C22.711 7.57 23 9.785 23 12c0 1.994-.234 3.988-.704 5.991l-.162.651a2 2 0 01-1.562 1.46C17.425 20.7 14.568 21 12 21c-2.372 0-4.989-.256-7.86-.767l-.712-.13a2 2 0 01-1.562-1.46A26.229 26.229 0 011 12c0-1.994.234-3.988.704-5.991l.162-.651a2 2 0 011.562-1.46C6.575 3.3 9.432 3 12 3zm0 2c-2.435 0-5.169.287-8.2.863l-.152.615A24.091 24.091 0 003 12c0 2.044.267 4.09.8 6.137l.697.128C7.251 18.755 9.753 19 12 19c2.435 0 5.169-.287 8.2-.863l.152-.615A24.09 24.09 0 0021 12c0-2.044-.267-4.09-.8-6.137l-.697-.128C16.749 5.245 14.247 5 12 5zm4 7L9 8v8l7-4z" clip-rule="evenodd"></path></symbol></defs><use xlink:href="#video" fill="#3F4064"></use></svg>