<svg xmlns:xlink="http://www.w3.org/1999/xlink" width="52" height="67" viewBox="0 0 52 67" fill="none" xmlns="http://www.w3.org/2000/svg">
<path d="M0 8.47151C0 3.79282 3.78319 0 8.45 0H43.55C48.2168 0 52 3.79282 52 8.47151V40.9338C52 43.1806 51.1097 45.3354 49.5251 46.9241L31.9751 64.5188C28.6751 67.8271 23.3249 67.8271 20.0249 64.5188L2.47495 46.9241C0.890265 45.3354 0 43.1806 0 40.9338V8.47151Z" fill="#FFCE00"/>
<path d="M12.0607 23.0607C11.4749 22.4749 11.4749 21.5251 12.0607 20.9393L14.182 18.818C14.7678 18.2322 15.7175 18.2322 16.3033 18.818L18.4246 20.9393C19.0104 21.5251 19.0104 22.4749 18.4246 23.0607L16.3033 25.182C15.7175 25.7678 14.7678 25.7678 14.182 25.182L12.0607 23.0607Z" fill="#28367F"/>
<path d="M34.0607 23.0607C33.4749 22.4749 33.4749 21.5251 34.0607 20.9393L36.182 18.818C36.7678 18.2322 37.7175 18.2322 38.3033 18.818L40.4246 20.9393C41.0104 21.5251 41.0104 22.4749 40.4246 23.0607L38.3033 25.182C37.7175 25.7678 36.7678 25.7678 36.182 25.182L34.0607 23.0607Z" fill="#28367F"/>
<path d="M10.6761 32.8138L13.9269 29.6354C14.2954 29.2751 14.8789 29.2579 15.2839 29.5766C26.3724 38.3027 40.4326 34.9665 40.4326 34.9665C28.3909 44.1777 15.4457 38.8074 10.6488 34.1556C10.2678 33.7862 10.2967 33.1847 10.6761 32.8138Z" fill="url(#paint0_linear)"/>
<path d="M41.3239 32.8138L38.0731 29.6354C37.7046 29.2751 37.1211 29.2579 36.7161 29.5766C25.6276 38.3027 11.5674 34.9665 11.5674 34.9665C23.6091 44.1777 36.5543 38.8074 41.3512 34.1556C41.7322 33.7862 41.7033 33.1847 41.3239 32.8138Z" fill="url(#paint1_linear)"/>
<defs>
<linearGradient id="paint0_linear" x1="10.5085" y1="39.9386" x2="41.0206" y2="39.9386" gradientUnits="userSpaceOnUse">
<stop stop-color="#28367F"/>
<stop offset="1" stop-color="#008DEB"/>
</linearGradient>
<linearGradient id="paint1_linear" x1="41.4915" y1="39.9386" x2="10.9794" y2="39.9386" gradientUnits="userSpaceOnUse">
<stop stop-color="#28367F"/>
<stop offset="1" stop-color="#008DEB"/>
</linearGradient>
</defs>
</svg>