<svg xmlns:xlink="http://www.w3.org/1999/xlink" width="82" height="25" viewBox="0 0 82 25" fill="none" xmlns="http://www.w3.org/2000/svg">
<g clip-path="url(#clip0)">
<path d="M77.7651 0.568848H75.3531C75.2933 0.568848 75.2335 0.588814 75.1936 0.628748C75.1537 0.668681 75.1338 0.728581 75.1338 0.808448C75.1338 0.868349 75.1338 0.908282 75.1537 0.948215C75.1737 0.988149 75.1737 1.02808 75.1936 1.04805H76.1704V3.68366C76.1704 3.78349 76.1903 3.86336 76.2501 3.90329C76.29 3.94322 76.3896 3.96319 76.4893 3.96319C76.5491 3.96319 76.589 3.96319 76.6488 3.94322C76.6887 3.92326 76.7285 3.92326 76.7684 3.92326V1.04805H77.6056C77.7452 1.04805 77.8249 0.968182 77.8249 0.788482C77.8249 0.748548 77.8249 0.688648 77.805 0.648715C77.805 0.628748 77.785 0.588814 77.7651 0.568848Z" fill="#FBB600"/>
<path d="M81.4125 3.48401C81.3926 3.30431 81.3926 3.1246 81.3727 2.90497C81.3527 2.68534 81.3328 2.48567 81.3128 2.24607C81.2929 2.02643 81.273 1.8068 81.253 1.60713C81.2331 1.40747 81.2132 1.22777 81.1932 1.088C81.1733 0.928265 81.1534 0.828431 81.1534 0.768531C81.1334 0.688664 81.0936 0.648731 81.0338 0.608798C80.974 0.568864 80.8743 0.548897 80.7547 0.548897C80.6949 0.548897 80.6351 0.548897 80.5753 0.568864C80.5155 0.588831 80.4756 0.608798 80.4358 0.608798C80.376 0.728598 80.3361 0.868365 80.2763 1.00813C80.2165 1.1479 80.1567 1.30763 80.0769 1.48733C79.9972 1.64707 79.9374 1.82677 79.8577 2.00647C79.7779 2.18617 79.7181 2.36587 79.6384 2.54557H79.6184C79.5586 2.4058 79.4989 2.26604 79.439 2.12627C79.3792 1.96653 79.3194 1.82677 79.2596 1.66703C79.1998 1.5073 79.14 1.36753 79.0802 1.2078C79.0204 1.04807 78.9606 0.908298 78.9008 0.788498C78.861 0.708631 78.8012 0.648731 78.7414 0.588831C78.6616 0.548897 78.5819 0.528931 78.4623 0.528931C78.3626 0.528931 78.2829 0.548897 78.2031 0.568864C78.1433 0.608798 78.0835 0.628764 78.0636 0.668698C78.0437 0.868365 78.0237 1.04807 78.0038 1.24773C77.9839 1.4474 77.9839 1.64707 77.9639 1.8667C77.944 2.08634 77.944 2.286 77.9241 2.48567C77.9041 2.68534 77.9041 2.86504 77.8842 3.04474C77.8842 3.20447 77.8643 3.36421 77.8643 3.48401C77.8643 3.60381 77.8643 3.68367 77.8643 3.74357C77.8643 3.90331 77.9639 3.98317 78.1633 3.98317C78.2231 3.98317 78.2629 3.98317 78.3028 3.96321C78.3427 3.94324 78.3825 3.94324 78.4224 3.94324C78.4423 3.68367 78.4423 3.46404 78.4623 3.24441C78.4822 3.02477 78.4822 2.80514 78.5021 2.60547C78.5221 2.4058 78.5221 2.18617 78.5221 1.96653C78.542 1.7469 78.542 1.5073 78.542 1.24773H78.5619C78.6417 1.4474 78.7414 1.70697 78.861 2.00647C78.9806 2.30597 79.14 2.66537 79.2995 3.04474C79.3194 3.10464 79.3593 3.1246 79.4191 3.16454C79.4789 3.1845 79.5387 3.20447 79.6184 3.20447C79.6783 3.20447 79.7381 3.1845 79.7979 3.1845C79.8377 3.16454 79.8975 3.14457 79.9175 3.1246C80.0969 2.66537 80.2563 2.286 80.376 2.00647C80.4956 1.70697 80.5952 1.46737 80.655 1.28767H80.675C80.675 1.40747 80.6949 1.5672 80.6949 1.76687C80.6949 1.94657 80.7148 2.14624 80.7348 2.36587C80.7547 2.5855 80.7547 2.80514 80.7746 3.0647C80.7946 3.30431 80.7946 3.56387 80.8145 3.80347C80.8145 3.90331 80.8544 3.96321 80.9142 4.00314C80.974 4.04307 81.0338 4.04307 81.1135 4.04307C81.1733 4.04307 81.2331 4.04307 81.273 4.02311C81.3128 4.00314 81.3726 3.98317 81.4125 3.96321C81.4325 3.80347 81.4325 3.66371 81.4125 3.48401Z" fill="#FBB600"/>
<path d="M15.4341 2.32593C13.8593 0.948225 11.4472 0.24939 8.17805 0.24939C7.22122 0.24939 6.18464 0.30929 5.1082 0.409123C4.03176 0.508957 3.09486 0.708624 2.31743 0.968192C1.89882 1.08799 1.55994 1.26769 1.32073 1.50729C1.08152 1.74689 0.961914 2.08633 0.961914 2.5256V22.0331C0.961914 22.712 1.14132 23.1912 1.46027 23.4907C1.79915 23.7902 2.3573 23.9299 3.13473 23.9299C3.53341 23.9299 3.89222 23.89 4.2311 23.8301C4.55005 23.7702 4.82913 23.6903 5.02847 23.6304V15.7835H8.37739C11.4871 15.7835 13.8393 15.0647 15.4141 13.6471C17.0089 12.2294 17.7863 10.3326 17.7863 7.95654C17.7863 5.5805 17.0089 3.7236 15.4341 2.32593ZM12.2247 11.3709C11.228 12.1096 9.87245 12.489 8.13818 12.489H5.00853V3.8434C5.44708 3.76353 5.96537 3.70363 6.52352 3.64373C7.08168 3.6038 7.65977 3.56387 8.23786 3.56387C9.99205 3.56387 11.3476 3.92327 12.3044 4.6221C13.2413 5.3409 13.7197 6.43907 13.7197 7.95654C13.7197 9.47402 13.2214 10.6121 12.2247 11.3709Z" fill="#FBB600"/>
<path d="M20.8168 6.31921C20.4181 6.31921 20.0593 6.35915 19.7403 6.43901C19.4214 6.51888 19.1622 6.57878 18.9629 6.61871V22.0929C18.9629 22.7518 19.1423 23.2111 19.4812 23.4906C19.84 23.7701 20.3782 23.9099 21.0958 23.9099C21.4945 23.9099 21.8533 23.87 22.1723 23.8101C22.4912 23.7502 22.7304 23.6703 22.9098 23.6104V8.17612C22.9098 7.49725 22.7504 7.01805 22.3916 6.73852C22.0726 6.45898 21.5344 6.31921 20.8168 6.31921Z" fill="#FBB600"/>
<path d="M39.2954 7.11798C37.9199 6.01981 36.0062 5.48071 33.5543 5.48071C32.1191 5.48071 30.8433 5.66041 29.7071 5.99985C28.5708 6.35925 27.6539 6.73862 26.9562 7.17788C26.4379 7.51732 26.0591 7.87672 25.8399 8.23612C25.6206 8.59552 25.501 9.05476 25.501 9.63379V22.113C25.501 22.7719 25.6804 23.2311 26.0193 23.5107C26.3781 23.7902 26.9163 23.93 27.6339 23.93C28.0127 23.93 28.3515 23.89 28.6705 23.8301C28.9894 23.7702 29.2286 23.6904 29.4081 23.6305V9.73362C29.9064 9.45409 30.5044 9.21449 31.2021 8.97489C31.8998 8.75525 32.6772 8.63545 33.5543 8.63545C34.7305 8.63545 35.6674 8.91499 36.365 9.49402C37.0627 10.0731 37.4016 10.9716 37.4016 12.2095V22.0731C37.4016 22.732 37.581 23.1912 37.9199 23.4707C38.2787 23.7503 38.8169 23.89 39.5346 23.89C39.9133 23.89 40.2721 23.8501 40.5911 23.7902C40.91 23.7303 41.1692 23.6504 41.3486 23.5905V12.0897C41.3685 9.87339 40.6907 8.21615 39.2954 7.11798Z" fill="#FBB600"/>
<path d="M76.5524 8.01643C75.775 7.1978 74.8381 6.57883 73.7218 6.1196C72.6055 5.68033 71.3895 5.46069 70.0539 5.46069C68.7183 5.46069 67.5024 5.68033 66.386 6.1196C65.2697 6.55886 64.3328 7.17783 63.5554 7.99647C62.778 8.79514 62.18 9.79347 61.7414 10.9515C61.3029 12.1096 61.1035 13.4074 61.1035 14.8451C61.1035 16.2827 61.3228 17.5805 61.7414 18.7386C62.16 19.8966 62.758 20.875 63.5355 21.6936C64.293 22.4923 65.2299 23.1312 66.3462 23.5705C67.4625 24.0098 68.6785 24.2294 70.0539 24.2294C71.4094 24.2294 72.6454 24.0098 73.7617 23.5705C74.878 23.1312 75.8149 22.5123 76.5724 21.6936C77.3299 20.895 77.9279 19.8966 78.3664 18.7386C78.805 17.5805 79.0043 16.2827 79.0043 14.8451C79.0043 13.4074 78.7851 12.1096 78.3664 10.9715C77.9279 9.81344 77.3299 8.83507 76.5524 8.01643ZM73.6819 19.3975C72.8248 20.4757 71.6088 20.9948 70.0539 20.9948C68.4991 20.9948 67.2831 20.4557 66.4259 19.3975C65.5688 18.3193 65.1501 16.8018 65.1501 14.8451C65.1501 12.8683 65.5887 11.3509 66.4658 10.2727C67.3429 9.19447 68.5389 8.65537 70.0539 8.65537C71.5888 8.65537 72.7849 9.19447 73.662 10.2926C74.5391 11.3908 74.9577 12.9083 74.9577 14.8451C74.9577 16.8018 74.5391 18.3193 73.6819 19.3975Z" fill="#FBB600"/>
<path d="M57.4175 0.289307C57.0388 0.289307 56.68 0.32924 56.361 0.409107C56.0421 0.488974 55.7829 0.548874 55.6035 0.588807V6.33922C55.1052 6.07966 54.5271 5.87999 53.8493 5.72025C53.1915 5.56052 52.4739 5.48065 51.7164 5.48065C50.4805 5.48065 49.3243 5.66036 48.2678 6.01976C47.1913 6.37916 46.2544 6.95819 45.4571 7.71693C44.6597 8.47566 44.0218 9.474 43.5434 10.672C43.0849 11.87 42.8457 13.2876 42.8457 14.9249C42.8457 16.5023 43.065 17.9 43.5235 19.058C43.9819 20.2361 44.6198 21.1945 45.4571 21.9732C46.2943 22.7519 47.291 23.3109 48.4671 23.6703C49.6432 24.0297 50.9589 24.2094 52.3941 24.2094C53.6699 24.2094 54.8061 24.0697 55.8029 23.7502C56.7996 23.4507 57.577 23.1113 58.1551 22.7319C58.6335 22.4324 58.9923 22.1129 59.2116 21.7735C59.4309 21.4341 59.5505 20.9948 59.5505 20.4757V2.10628C59.5505 1.44738 59.3711 0.988142 59.0322 0.708608C58.6933 0.429074 58.1351 0.289307 57.4175 0.289307ZM55.6434 20.1762C55.2447 20.3958 54.7862 20.5955 54.2679 20.7552C53.7496 20.9149 53.1118 20.9948 52.3543 20.9948C50.6997 20.9948 49.3641 20.5156 48.3674 19.5572C47.3707 18.5988 46.8724 17.0614 46.8724 14.9449C46.8724 13.8068 47.0119 12.8484 47.291 12.0497C47.5701 11.251 47.9488 10.5921 48.4273 10.093C48.9057 9.57383 49.4638 9.21443 50.1017 8.97483C50.7396 8.7552 51.4373 8.6354 52.1948 8.6354C52.8925 8.6354 53.5503 8.73523 54.1284 8.9349C54.7065 9.13456 55.2048 9.37416 55.6434 9.6537V20.1762Z" fill="#FBB600"/>
<path d="M22.3312 1.50728L21.5338 0.708611C21.3345 0.508944 21.0953 0.429077 20.8361 0.429077C20.577 0.429077 20.3378 0.508944 20.1385 0.688645L19.3411 1.48731L18.5437 2.28598C18.3444 2.48565 18.2646 2.72525 18.2646 2.98482C18.2646 3.24438 18.3643 3.48399 18.5437 3.68365L19.3411 4.48232L20.1385 5.28099C20.3378 5.48066 20.577 5.58049 20.8361 5.58049C21.0953 5.58049 21.3345 5.48066 21.5338 5.28099L22.3312 4.48232L23.1286 3.68365C23.3279 3.48399 23.4076 3.24438 23.4076 2.98482C23.4076 2.72525 23.308 2.48565 23.1286 2.28598L22.3312 1.50728Z" fill="#FBB600"/>
</g>
<defs>
<clipPath id="clip0">
<rect width="80.4706" height="24" fill="white" transform="translate(0.961914 0.24939)"/>
</clipPath>
</defs>
</svg>